<mxfile host="app.diagrams.net" modified="2023-05-27T00:28:03.000Z" agent="Mozilla/5.0 (Windows NT 10.0; Win64; x64) AppleWebKit/537.36 (KHTML, like Gecko) Chrome/113.0.0.0 Safari/537.36" etag="AIhzABIBUzxJGJ2nc1I-" version="21.3.4" type="github">
  <diagram name="Page-1" id="ad52d381-51e7-2e0d-a935-2d0ddd2fd229">
    <mxGraphModel dx="1750" dy="902" grid="1" gridSize="10" guides="1" tooltips="1" connect="1" arrows="1" fold="1" page="1" pageScale="1" pageWidth="1100" pageHeight="850" background="none" math="0" shadow="0">
      <root>
        <mxCell id="0" />
        <mxCell id="1" parent="0" />
        <mxCell id="2c924340bb9dbf6c-4" value="&lt;b&gt;wasix-org/wasix-witx&lt;/b&gt;&lt;br&gt;(ABI specification)" style="ellipse;whiteSpace=wrap;html=1;rounded=1;shadow=1;comic=0;labelBackgroundColor=none;strokeWidth=2;fontFamily=Verdana;fontSize=12;align=center;" parent="1" vertex="1">
          <mxGeometry x="470" y="105" width="120" height="120" as="geometry" />
        </mxCell>
        <mxCell id="2c924340bb9dbf6c-33" value="specified-by" style="edgeStyle=none;rounded=1;html=1;labelBackgroundColor=none;startArrow=none;startFill=0;startSize=5;endArrow=classicThin;endFill=1;endSize=5;jettySize=auto;orthogonalLoop=1;strokeColor=#B3B3B3;strokeWidth=1;fontFamily=Verdana;fontSize=12;exitX=0.747;exitY=0.058;exitDx=0;exitDy=0;entryX=0;entryY=1;entryDx=0;entryDy=0;exitPerimeter=0;" parent="1" source="P7lKFxrB4OPsHLQeTu6b-1" target="2c924340bb9dbf6c-4" edge="1">
          <mxGeometry relative="1" as="geometry">
            <mxPoint x="360" y="225" as="targetPoint" />
          </mxGeometry>
        </mxCell>
        <mxCell id="P7lKFxrB4OPsHLQeTu6b-1" value="&lt;b&gt;wasix-org/wasix-libc&lt;/b&gt;&lt;br&gt;(C standard library)" style="ellipse;whiteSpace=wrap;html=1;rounded=1;shadow=1;comic=0;labelBackgroundColor=none;strokeWidth=2;fontFamily=Verdana;fontSize=12;align=center;" vertex="1" parent="1">
          <mxGeometry x="340" y="315" width="120" height="120" as="geometry" />
        </mxCell>
        <mxCell id="P7lKFxrB4OPsHLQeTu6b-2" value="&lt;b&gt;wasix-org/rust&lt;/b&gt;&lt;br&gt;(rust standard library)" style="ellipse;whiteSpace=wrap;html=1;rounded=1;shadow=1;comic=0;labelBackgroundColor=none;strokeWidth=2;fontFamily=Verdana;fontSize=12;align=center;" vertex="1" parent="1">
          <mxGeometry x="580" y="345" width="120" height="120" as="geometry" />
        </mxCell>
        <mxCell id="P7lKFxrB4OPsHLQeTu6b-3" value="depends-on" style="edgeStyle=none;rounded=1;html=1;labelBackgroundColor=none;startArrow=none;startFill=0;startSize=5;endArrow=classicThin;endFill=1;endSize=5;jettySize=auto;orthogonalLoop=1;strokeColor=#B3B3B3;strokeWidth=1;fontFamily=Verdana;fontSize=12;exitX=0;exitY=0.5;exitDx=0;exitDy=0;" edge="1" parent="1" source="P7lKFxrB4OPsHLQeTu6b-2" target="P7lKFxrB4OPsHLQeTu6b-1">
          <mxGeometry relative="1" as="geometry">
            <mxPoint x="502" y="186" as="sourcePoint" />
            <mxPoint x="578" y="303" as="targetPoint" />
          </mxGeometry>
        </mxCell>
        <mxCell id="P7lKFxrB4OPsHLQeTu6b-4" value="specified-by" style="edgeStyle=none;rounded=1;html=1;labelBackgroundColor=none;startArrow=none;startFill=0;startSize=5;endArrow=classicThin;endFill=1;endSize=5;jettySize=auto;orthogonalLoop=1;strokeColor=#B3B3B3;strokeWidth=1;fontFamily=Verdana;fontSize=12;exitX=0.34;exitY=0.035;exitDx=0;exitDy=0;entryX=0.723;entryY=0.948;entryDx=0;entryDy=0;exitPerimeter=0;entryPerimeter=0;" edge="1" parent="1" source="P7lKFxrB4OPsHLQeTu6b-2" target="2c924340bb9dbf6c-4">
          <mxGeometry relative="1" as="geometry">
            <mxPoint x="708" y="247" as="sourcePoint" />
            <mxPoint x="660" y="185" as="targetPoint" />
          </mxGeometry>
        </mxCell>
        <mxCell id="P7lKFxrB4OPsHLQeTu6b-5" value="&lt;b&gt;wasix-org/mio&lt;/b&gt;&lt;br&gt;(non-blocking IO)" style="whiteSpace=wrap;html=1;rounded=1;shadow=1;comic=0;labelBackgroundColor=none;strokeWidth=2;fontFamily=Verdana;fontSize=12;align=center;arcSize=50;" vertex="1" parent="1">
          <mxGeometry x="850" y="425" width="140" height="60" as="geometry" />
        </mxCell>
        <mxCell id="P7lKFxrB4OPsHLQeTu6b-6" value="&lt;b&gt;wasix-org/tokio&lt;/b&gt;&lt;br&gt;(non-blocking IO platform)" style="whiteSpace=wrap;html=1;rounded=1;shadow=1;comic=0;labelBackgroundColor=none;strokeWidth=2;fontFamily=Verdana;fontSize=12;align=center;arcSize=50;" vertex="1" parent="1">
          <mxGeometry x="850" y="525" width="140" height="60" as="geometry" />
        </mxCell>
        <mxCell id="P7lKFxrB4OPsHLQeTu6b-7" value="&lt;b&gt;wasix-org/socket2&lt;/b&gt;&lt;br&gt;(socket wrapper)" style="whiteSpace=wrap;html=1;rounded=1;shadow=1;comic=0;labelBackgroundColor=none;strokeWidth=2;fontFamily=Verdana;fontSize=12;align=center;arcSize=50;" vertex="1" parent="1">
          <mxGeometry x="850" y="325" width="140" height="60" as="geometry" />
        </mxCell>
        <mxCell id="P7lKFxrB4OPsHLQeTu6b-8" value="uses" style="edgeStyle=none;rounded=1;html=1;labelBackgroundColor=none;startArrow=none;startFill=0;startSize=5;endArrow=classicThin;endFill=1;endSize=5;jettySize=auto;orthogonalLoop=1;strokeColor=#B3B3B3;strokeWidth=1;fontFamily=Verdana;fontSize=12;exitX=0;exitY=0.5;exitDx=0;exitDy=0;entryX=0.973;entryY=0.302;entryDx=0;entryDy=0;entryPerimeter=0;" edge="1" parent="1" source="P7lKFxrB4OPsHLQeTu6b-7" target="P7lKFxrB4OPsHLQeTu6b-2">
          <mxGeometry relative="1" as="geometry">
            <mxPoint x="846" y="345" as="sourcePoint" />
            <mxPoint x="820" y="189" as="targetPoint" />
          </mxGeometry>
        </mxCell>
        <mxCell id="P7lKFxrB4OPsHLQeTu6b-9" value="uses" style="edgeStyle=none;rounded=1;html=1;labelBackgroundColor=none;startArrow=none;startFill=0;startSize=5;endArrow=classicThin;endFill=1;endSize=5;jettySize=auto;orthogonalLoop=1;strokeColor=#B3B3B3;strokeWidth=1;fontFamily=Verdana;fontSize=12;exitX=0;exitY=0.5;exitDx=0;exitDy=0;entryX=0.98;entryY=0.615;entryDx=0;entryDy=0;entryPerimeter=0;" edge="1" parent="1" source="P7lKFxrB4OPsHLQeTu6b-5" target="P7lKFxrB4OPsHLQeTu6b-2">
          <mxGeometry relative="1" as="geometry">
            <mxPoint x="880" y="375" as="sourcePoint" />
            <mxPoint x="707" y="391" as="targetPoint" />
          </mxGeometry>
        </mxCell>
        <mxCell id="P7lKFxrB4OPsHLQeTu6b-10" value="uses" style="edgeStyle=none;rounded=1;html=1;labelBackgroundColor=none;startArrow=none;startFill=0;startSize=5;endArrow=classicThin;endFill=1;endSize=5;jettySize=auto;orthogonalLoop=1;strokeColor=#B3B3B3;strokeWidth=1;fontFamily=Verdana;fontSize=12;exitX=0;exitY=0.25;exitDx=0;exitDy=0;entryX=1;entryY=1;entryDx=0;entryDy=0;" edge="1" parent="1" source="P7lKFxrB4OPsHLQeTu6b-6" target="P7lKFxrB4OPsHLQeTu6b-2">
          <mxGeometry relative="1" as="geometry">
            <mxPoint x="880" y="465" as="sourcePoint" />
            <mxPoint x="708" y="429" as="targetPoint" />
          </mxGeometry>
        </mxCell>
        <mxCell id="P7lKFxrB4OPsHLQeTu6b-11" value="depends-on" style="edgeStyle=none;rounded=1;html=1;labelBackgroundColor=none;startArrow=none;startFill=0;startSize=5;endArrow=classicThin;endFill=1;endSize=5;jettySize=auto;orthogonalLoop=1;strokeColor=#B3B3B3;strokeWidth=1;fontFamily=Verdana;fontSize=12;exitX=0.5;exitY=0;exitDx=0;exitDy=0;entryX=0.5;entryY=1;entryDx=0;entryDy=0;" edge="1" parent="1" source="P7lKFxrB4OPsHLQeTu6b-6" target="P7lKFxrB4OPsHLQeTu6b-5">
          <mxGeometry relative="1" as="geometry">
            <mxPoint x="880" y="560" as="sourcePoint" />
            <mxPoint x="692" y="477" as="targetPoint" />
          </mxGeometry>
        </mxCell>
        <mxCell id="P7lKFxrB4OPsHLQeTu6b-12" value="depends-on" style="edgeStyle=none;rounded=1;html=1;labelBackgroundColor=none;startArrow=none;startFill=0;startSize=5;endArrow=classicThin;endFill=1;endSize=5;jettySize=auto;orthogonalLoop=1;strokeColor=#B3B3B3;strokeWidth=1;fontFamily=Verdana;fontSize=12;exitX=0.5;exitY=0;exitDx=0;exitDy=0;entryX=0.5;entryY=1;entryDx=0;entryDy=0;" edge="1" parent="1" source="P7lKFxrB4OPsHLQeTu6b-5" target="P7lKFxrB4OPsHLQeTu6b-7">
          <mxGeometry relative="1" as="geometry">
            <mxPoint x="950" y="525" as="sourcePoint" />
            <mxPoint x="950" y="495" as="targetPoint" />
          </mxGeometry>
        </mxCell>
        <mxCell id="P7lKFxrB4OPsHLQeTu6b-13" value="&lt;b&gt;wasix-org/static-web-server&lt;/b&gt;&lt;br&gt;(async HTTP server)" style="whiteSpace=wrap;html=1;rounded=1;shadow=1;comic=0;labelBackgroundColor=none;strokeWidth=2;fontFamily=Verdana;fontSize=12;align=center;arcSize=50;" vertex="1" parent="1">
          <mxGeometry x="570" y="665" width="140" height="60" as="geometry" />
        </mxCell>
        <mxCell id="P7lKFxrB4OPsHLQeTu6b-14" value="uses" style="edgeStyle=none;rounded=1;html=1;labelBackgroundColor=none;startArrow=none;startFill=0;startSize=5;endArrow=classicThin;endFill=1;endSize=5;jettySize=auto;orthogonalLoop=1;strokeColor=#B3B3B3;strokeWidth=1;fontFamily=Verdana;fontSize=12;exitX=0.5;exitY=0;exitDx=0;exitDy=0;entryX=0.5;entryY=1;entryDx=0;entryDy=0;" edge="1" parent="1" source="P7lKFxrB4OPsHLQeTu6b-13" target="P7lKFxrB4OPsHLQeTu6b-2">
          <mxGeometry relative="1" as="geometry">
            <mxPoint x="880" y="580" as="sourcePoint" />
            <mxPoint x="692" y="457" as="targetPoint" />
          </mxGeometry>
        </mxCell>
        <mxCell id="P7lKFxrB4OPsHLQeTu6b-15" value="depends-on" style="edgeStyle=none;rounded=1;html=1;labelBackgroundColor=none;startArrow=none;startFill=0;startSize=5;endArrow=classicThin;endFill=1;endSize=5;jettySize=auto;orthogonalLoop=1;strokeColor=#B3B3B3;strokeWidth=1;fontFamily=Verdana;fontSize=12;exitX=1;exitY=0.25;exitDx=0;exitDy=0;entryX=0;entryY=0.75;entryDx=0;entryDy=0;" edge="1" parent="1" source="P7lKFxrB4OPsHLQeTu6b-13" target="P7lKFxrB4OPsHLQeTu6b-6">
          <mxGeometry relative="1" as="geometry">
            <mxPoint x="720" y="665" as="sourcePoint" />
            <mxPoint x="650" y="475" as="targetPoint" />
          </mxGeometry>
        </mxCell>
        <mxCell id="P7lKFxrB4OPsHLQeTu6b-16" value="&lt;b&gt;wasix-org/bash&lt;/b&gt;&lt;br&gt;(born-again Shell)" style="whiteSpace=wrap;html=1;rounded=1;shadow=1;comic=0;labelBackgroundColor=none;strokeWidth=2;fontFamily=Verdana;fontSize=12;align=center;arcSize=50;" vertex="1" parent="1">
          <mxGeometry x="160" y="525" width="140" height="60" as="geometry" />
        </mxCell>
        <mxCell id="P7lKFxrB4OPsHLQeTu6b-17" value="&lt;b&gt;wasix-org/dash&lt;/b&gt;&lt;br&gt;(born-again Shell)" style="whiteSpace=wrap;html=1;rounded=1;shadow=1;comic=0;labelBackgroundColor=none;strokeWidth=2;fontFamily=Verdana;fontSize=12;align=center;arcSize=50;" vertex="1" parent="1">
          <mxGeometry x="160" y="445" width="140" height="60" as="geometry" />
        </mxCell>
        <mxCell id="P7lKFxrB4OPsHLQeTu6b-18" value="&lt;b&gt;wasix-org/cpython&lt;/b&gt;&lt;br&gt;(born-again Shell)" style="whiteSpace=wrap;html=1;rounded=1;shadow=1;comic=0;labelBackgroundColor=none;strokeWidth=2;fontFamily=Verdana;fontSize=12;align=center;arcSize=50;" vertex="1" parent="1">
          <mxGeometry x="160" y="605" width="140" height="60" as="geometry" />
        </mxCell>
        <mxCell id="P7lKFxrB4OPsHLQeTu6b-19" value="&lt;b&gt;wasix-org/curl&lt;/b&gt;&lt;br&gt;(born-again Shell)" style="whiteSpace=wrap;html=1;rounded=1;shadow=1;comic=0;labelBackgroundColor=none;strokeWidth=2;fontFamily=Verdana;fontSize=12;align=center;arcSize=50;" vertex="1" parent="1">
          <mxGeometry x="160" y="685" width="140" height="60" as="geometry" />
        </mxCell>
        <mxCell id="P7lKFxrB4OPsHLQeTu6b-20" value="uses" style="edgeStyle=none;rounded=1;html=1;labelBackgroundColor=none;startArrow=none;startFill=0;startSize=5;endArrow=classicThin;endFill=1;endSize=5;jettySize=auto;orthogonalLoop=1;strokeColor=#B3B3B3;strokeWidth=1;fontFamily=Verdana;fontSize=12;exitX=1;exitY=0.5;exitDx=0;exitDy=0;entryX=0;entryY=1;entryDx=0;entryDy=0;" edge="1" parent="1" source="P7lKFxrB4OPsHLQeTu6b-17" target="P7lKFxrB4OPsHLQeTu6b-1">
          <mxGeometry relative="1" as="geometry">
            <mxPoint x="650" y="675" as="sourcePoint" />
            <mxPoint x="650" y="475" as="targetPoint" />
          </mxGeometry>
        </mxCell>
        <mxCell id="P7lKFxrB4OPsHLQeTu6b-21" value="uses" style="edgeStyle=none;rounded=1;html=1;labelBackgroundColor=none;startArrow=none;startFill=0;startSize=5;endArrow=classicThin;endFill=1;endSize=5;jettySize=auto;orthogonalLoop=1;strokeColor=#B3B3B3;strokeWidth=1;fontFamily=Verdana;fontSize=12;exitX=1;exitY=0.5;exitDx=0;exitDy=0;entryX=0;entryY=1;entryDx=0;entryDy=0;" edge="1" parent="1" source="P7lKFxrB4OPsHLQeTu6b-16">
          <mxGeometry relative="1" as="geometry">
            <mxPoint x="310" y="485" as="sourcePoint" />
            <mxPoint x="368" y="427" as="targetPoint" />
          </mxGeometry>
        </mxCell>
        <mxCell id="P7lKFxrB4OPsHLQeTu6b-22" value="uses" style="edgeStyle=none;rounded=1;html=1;labelBackgroundColor=none;startArrow=none;startFill=0;startSize=5;endArrow=classicThin;endFill=1;endSize=5;jettySize=auto;orthogonalLoop=1;strokeColor=#B3B3B3;strokeWidth=1;fontFamily=Verdana;fontSize=12;exitX=1;exitY=0.5;exitDx=0;exitDy=0;" edge="1" parent="1" source="P7lKFxrB4OPsHLQeTu6b-18" target="P7lKFxrB4OPsHLQeTu6b-1">
          <mxGeometry relative="1" as="geometry">
            <mxPoint x="310" y="565" as="sourcePoint" />
            <mxPoint x="378" y="437" as="targetPoint" />
          </mxGeometry>
        </mxCell>
        <mxCell id="P7lKFxrB4OPsHLQeTu6b-23" value="uses" style="edgeStyle=none;rounded=1;html=1;labelBackgroundColor=none;startArrow=none;startFill=0;startSize=5;endArrow=classicThin;endFill=1;endSize=5;jettySize=auto;orthogonalLoop=1;strokeColor=#B3B3B3;strokeWidth=1;fontFamily=Verdana;fontSize=12;exitX=1;exitY=0.5;exitDx=0;exitDy=0;entryX=0.5;entryY=1;entryDx=0;entryDy=0;" edge="1" parent="1" source="P7lKFxrB4OPsHLQeTu6b-19" target="P7lKFxrB4OPsHLQeTu6b-1">
          <mxGeometry relative="1" as="geometry">
            <mxPoint x="310" y="645" as="sourcePoint" />
            <mxPoint x="388" y="447" as="targetPoint" />
          </mxGeometry>
        </mxCell>
      </root>
    </mxGraphModel>
  </diagram>
</mxfile>
